<svg fill="none" height="48" viewBox="0 0 170 48" width="170" xmlns="http://www.w3.org/2000/svg"><path d="m0 7.5h28.8c2.5202 0 3.7804 0 4.743.49047.8467.43143 1.5351 1.11984 1.9665 1.96657.4905.96256.4905 2.22276.4905 4.74296v1.8h-28.8c-2.52024 0-3.78035 0-4.74296-.4905-.84673-.4314-1.535139-1.1198-1.966569-1.9665-.490471-.9626-.490471-2.2228-.490471-4.743z" fill="#dc2626"/><path d="m0 28.5h28.8c2.5202 0 3.7804 0 4.743-.4905.8467-.4314 1.5351-1.1198 1.9665-1.9665.4905-.9626.4905-2.2228.4905-4.743v-1.8h-28.8c-2.52024 0-3.78035 0-4.74296.4905-.84673.4314-1.535139 1.1198-1.966569 1.9665-.490471.9626-.490471 2.2228-.490471 4.743z" fill="#dc2626"/><path d="m14 31.5h14.8c2.5202 0 3.7804 0 4.743.4905.8467.4314 1.5351 1.1198 1.9665 1.9665.4905.9626.4905 2.2228.4905 4.743v1.8h-14.8c-2.5202 0-3.7804 0-4.743-.4905-.8467-.4314-1.5351-1.1198-1.9665-1.9665-.4905-.9626-.4905-2.2228-.4905-4.743z" fill="#dc2626"/><g fill="#0a0a0a"><path d="m46 32.9999v-19.683h9.828c1.278 0 2.43.18 3.456.54 1.026.342 1.845.927 2.457 1.755.612.81.918 1.935.918 3.375 0 1.296-.333 2.358-.999 3.186-.648.81-1.53 1.314-2.646 1.512v.216c2.25.198 3.375 1.485 3.375 3.861v5.238h-4.482v-4.59c0-.954-.225-1.611-.675-1.971-.432-.378-1.053-.567-1.863-.567h-4.941v7.128zm8.856-15.957h-4.428v5.346h4.509c1.008 0 1.755-.189 2.241-.567.486-.396.729-.936.729-1.62v-.864c0-.828-.27-1.413-.81-1.755-.54-.36-1.287-.54-2.241-.54z"/><path d="m68.6851 33.2699c-1.332 0-2.412-.351-3.24-1.053-.828-.72-1.242-1.674-1.242-2.862v-.054c0-1.386.441-2.457 1.323-3.213s2.07-1.224 3.564-1.404l4.05-.54v-.567c0-1.368-.828-2.052-2.484-2.052-.792 0-1.422.153-1.89.459-.45.306-.675.747-.675 1.323h-3.753c0-1.602.585-2.844 1.755-3.726 1.17-.9 2.817-1.35 4.941-1.35 1.944 0 3.465.414 4.563 1.242 1.116.828 1.674 2.142 1.674 3.942v6.669h1.89v2.916h-4.968l-.324-2.241h-.297c-.36.792-.963 1.413-1.809 1.863-.828.432-1.854.648-3.078.648zm1.782-2.97c.72 0 1.323-.171 1.809-.513.504-.36.792-.819.864-1.377v-1.944l-2.727.405c-.612.072-1.107.234-1.485.486-.378.234-.567.594-.567 1.08v.351c0 .45.18.819.54 1.107.378.27.9.405 1.566.405z"/><path d="m81.0348 32.9999v-14.499h4.158v14.499zm0-16.335v-3.348h4.158v3.348z"/><path d="m88.4313 32.9999v-19.683h4.158v19.683z"/><path d="m101.147 33.2699c-2.0701 0-3.6541-.45-4.7521-1.35-1.08-.9-1.611-2.07-1.593-3.51h3.969c.036.72.279 1.233.729 1.539.468.306 1.0621.459 1.7821.459s1.233-.135 1.539-.405c.324-.288.486-.63.486-1.026 0-.63-.225-1.044-.675-1.242-.45-.216-1.152-.396-2.106-.54-.8641-.126-1.7101-.324-2.5381-.594s-1.512-.693-2.052-1.269c-.522-.594-.783-1.404-.783-2.43 0-1.008.252-1.854.756-2.538.522-.702 1.233-1.233 2.133-1.593s1.935-.54 3.1051-.54c1.782 0 3.222.396 4.32 1.188 1.116.792 1.692 1.908 1.728 3.348l-3.915-.027c0-.558-.198-.981-.594-1.269-.378-.306-.891-.459-1.539-.459-.63 0-1.107.126-1.4311.378-.324.252-.486.585-.486.999 0 .576.261.954.7831 1.134.54.18 1.215.333 2.025.459.684.09 1.35.216 1.998.378.648.144 1.233.378 1.755.702.54.324.963.774 1.269 1.35.306.558.459 1.296.459 2.214 0 1.422-.558 2.556-1.674 3.402-1.098.828-2.664 1.242-4.698 1.242z"/><path d="m109.922 37.5089v-19.008h3.942l.216 2.133h.189c.36-.756.918-1.341 1.674-1.755.774-.432 1.638-.648 2.592-.648 1.944 0 3.357.657 4.239 1.971s1.323 3.069 1.323 5.265v.621c0 2.502-.504 4.329-1.512 5.481-.99 1.134-2.34 1.701-4.05 1.701-.936 0-1.791-.207-2.565-.621-.774-.432-1.341-1.026-1.701-1.782h-.189v6.642zm6.939-7.614c.9 0 1.593-.252 2.079-.756s.729-1.215.729-2.133v-2.484c0-.918-.243-1.629-.729-2.133-.486-.522-1.179-.783-2.079-.783-.846 0-1.521.261-2.025.783-.486.522-.729 1.251-.729 2.187v2.376c0 .936.243 1.665.729 2.187.504.504 1.179.756 2.025.756z"/><path d="m132.599 33.2699c-1.602 0-2.943-.306-4.023-.918-1.062-.63-1.854-1.503-2.376-2.619-.522-1.134-.783-2.448-.783-3.942v-.243c0-1.566.288-2.889.864-3.969.576-1.098 1.377-1.926 2.403-2.484 1.044-.576 2.241-.864 3.591-.864 1.476 0 2.727.279 3.753.837 1.044.558 1.836 1.341 2.376 2.349s.81 2.187.81 3.537v1.836h-9.585v.756c0 .774.261 1.395.783 1.863.54.468 1.224.702 2.052.702.738 0 1.341-.162 1.809-.486.486-.324.774-.756.864-1.296h3.915c-.054.99-.36 1.854-.918 2.592s-1.314 1.314-2.268 1.728-2.043.621-3.267.621zm-2.97-9.18v.135h5.508v-.135c0-.972-.252-1.674-.756-2.106-.504-.45-1.161-.675-1.971-.675-.864 0-1.548.243-2.052.729-.486.468-.729 1.152-.729 2.052z"/><path d="m147.721 33.2699c-1.602 0-2.943-.306-4.023-.918-1.062-.63-1.854-1.503-2.376-2.619-.522-1.134-.783-2.448-.783-3.942v-.243c0-1.566.288-2.889.864-3.969.576-1.098 1.377-1.926 2.403-2.484 1.044-.576 2.241-.864 3.591-.864 1.476 0 2.727.279 3.753.837 1.044.558 1.836 1.341 2.376 2.349s.81 2.187.81 3.537v1.836h-9.585v.756c0 .774.261 1.395.783 1.863.54.468 1.224.702 2.052.702.738 0 1.341-.162 1.809-.486.486-.324.774-.756.864-1.296h3.915c-.054.99-.36 1.854-.918 2.592s-1.314 1.314-2.268 1.728-2.043.621-3.267.621zm-2.97-9.18v.135h5.508v-.135c0-.972-.252-1.674-.756-2.106-.504-.45-1.161-.675-1.971-.675-.864 0-1.548.243-2.052.729-.486.468-.729 1.152-.729 2.052z"/><path d="m161.223 33.2699c-1.944 0-3.357-.657-4.239-1.971s-1.323-3.069-1.323-5.265v-.594c0-2.52.495-4.347 1.485-5.481 1.008-1.152 2.358-1.728 4.05-1.728.954 0 1.809.216 2.565.648.774.414 1.341.999 1.701 1.755h.189v-7.317h4.158v19.683h-3.942l-.216-2.133h-.189c-.36.756-.918 1.35-1.674 1.782-.756.414-1.611.621-2.565.621zm1.647-3.375c.846 0 1.521-.261 2.025-.783s.756-1.251.756-2.187v-2.376c0-.918-.252-1.638-.756-2.16s-1.179-.783-2.025-.783c-.882 0-1.566.252-2.052.756s-.729 1.215-.729 2.133v2.511c0 .9.243 1.611.729 2.133.486.504 1.17.756 2.052.756z"/></g></svg>